<?xml version="1.0" encoding="UTF-8"?>
<svg width="179.13mm" height="44.849mm" version="1.1" viewBox="0 0 179.13 44.849" xmlns="http://www.w3.org/2000/svg" xmlns:cc="http://creativecommons.org/ns#" xmlns:dc="http://purl.org/dc/elements/1.1/" xmlns:rdf="http://www.w3.org/1999/02/22-rdf-syntax-ns#">
 <metadata>
  <rdf:RDF>
   <cc:Work rdf:about="">
    <dc:format>image/svg+xml</dc:format>
    <dc:type rdf:resource="http://purl.org/dc/dcmitype/StillImage"/>
    <dc:title/>
   </cc:Work>
  </rdf:RDF>
 </metadata>
 <g transform="translate(-68.207 -168.96)">
  <g transform="translate(5.2915 22.631)">
   <g transform="matrix(.9857 0 0 .9857 74.366 -.14392)" fill="#d5d5d5">
    <path d="m71.07 172.95-4.7347 0.33077 0.57447-2.7346 2.1393-0.14973-0.37624 1.8092 2.5954-0.18103 0.93087-4.4433-7.3301 0.5118-1.6636 8.0013 4.7347-0.33077-0.77301 3.6202-2.1198 0.1484 0.4757-2.2317-2.615 0.18237-1.0303 4.8662 7.3301-0.5118z"/>
    <path d="m74.795 170 2.4961-0.17422-2.4366 11.621 2.5952-0.182 2.4369-11.621 2.496-0.17421 0.55468-2.6344-7.5875 0.53064z"/>
    <path d="m87.573 171.76 0.55461-2.6932 2.1198-0.1484-0.55498 2.6935zm2.8326 8.598 2.9919-14.255-7.3104 0.51154-2.9915 14.255 2.5952-0.18201 1.3273-6.2738 2.1197-0.14839-1.3273 6.2741z"/>
    <path d="m98.978 179.78 2.4369-11.621 2.4961-0.1752 0.55493-2.6337-7.5875 0.53065-0.55463 2.6337 2.4959-0.17421-2.4366 11.621z"/>
    <path d="m104.62 179.39 2.5951-0.18101 2.9915-14.255-2.5952 0.182z"/>
    <path d="m115.73 167.18 2.1198-0.14839-1.8824 8.9875-2.1195 0.14838zm-5.032 11.802 7.31-0.51042 2.9915-14.255-7.3103 0.51044z"/>
    <path d="m124.09 178.07 1.3665-6.4751 1.1886 6.296 2.2585-0.15792 2.9919-14.255-2.5952 0.18201-1.3673 6.5735-1.1885-6.3951-2.2585 0.15791-2.9908 14.255z"/>
   </g>
   <g transform="matrix(.9857 0 0 .9857 -.064032 21.542)" fill="#fefefe">
    <path d="m88.592 151.83-2.5954 0.18103 0.7417-3.6268 2.5951-0.182zm-4.5817-6.7238-3.9986 19.056 3.4689-0.24195 1.7745-8.3877 6.0644-0.42299 2.2248-10.67z"/>
    <path d="m100.85 147.82 2.8337-0.19837-0.74166 3.6004-2.8337 0.19836zm-6.7269 15.777 3.4693-0.24198 1.7745-8.387 2.8337-0.19837-1.7745 8.387 3.4694-0.24296 3.999-19.056-9.772 0.68329z"/>
    <path d="m108.8 162.69 9.7455-0.68118 1.377-6.505-3.4693 0.24296-0.63527 2.9832-2.8072 0.19654 2.5155-12.014 2.8073-0.19754-0.50239 2.4195 3.469-0.24294 1.2451-5.94-9.7459 0.68119z"/>
    <path d="m135.67 145.62 0.7409-3.5211-8.9513 0.6259-3.9982 19.056 8.951-0.62626 0.74082-3.5208-5.4816 0.383 1.0327-4.8922 3.7868-0.26474 0.74189-3.5211-3.7868 0.26474 0.74081-3.6011z"/>
    <path d="m66.678 158.66-1.377 6.5054 9.7984-0.68469 2.4894-11.88-6.3291 0.44214 0.76775-3.6546 2.8601-0.20018-0.5032 2.4192 3.4693-0.24297 1.2445-5.94-4.3282 0.30289-8.7288 0.57005 2.9099 1.4889-1.8756 9.0191 6.329-0.44213-1.0324 4.8397-2.8336 0.19738 0.6353-2.9835z"/>
   </g>
   <path d="m69.437 159.51-0.27345 1.3458 137.18-9.4256 0.2853-1.3687z" fill="#e23229"/>
   <path d="m62.915 191.18 137.11-9.421 0.2853-1.3686-137.12 9.4437z" fill="#e23229"/>
   <g transform="matrix(1 -.068612 -.20846 1 33.596 18.745)" fill="#e23229">
    <path d="m209.29 147.21 2e-3 -0.69222 5.0676-7e-3 -0.0275 29.33-0.68193 8.3e-4 0.0259-28.637zm7.6838 31.249 7e-3 -34.572-10.281 0.0134-9e-3 6.0343 4.3853-6e-3 3e-3 28.539z"/>
    <path d="m234.58 146.48-0.0154 16.65 4.7227-1e-5 3.7e-4 0.74326h-4.7238l-0.0109 11.937-0.74321 2.6e-4 0.0126-11.937-11.209 7e-3zm-14.539 20.024 11.209-7e-3v11.938l5.8959-8e-3 2e-3 -11.931h4.7575l1e-5 -5.9921h-4.7566l3e-3 -16.649-4.4902 0.0228-12.614 18.462z"/>
    <path d="m233.82 149.12-9.7719 14.012h9.7719zm-2.226 7.0208 1e-5 4.8655h-3.4652z"/>
   </g>
  </g>
 </g>
</svg>
